<svg xmlns="http://www.w3.org/2000/svg" viewBox="0 0 512 512">
  <!-- Background -->
  <rect width="512" height="512" rx="96" fill="#2563eb"/>

  <!-- Document icon -->
  <g transform="translate(96, 64) scale(1.3)">
    <!-- Document body -->
    <path
      fill="none"
      stroke="white"
      stroke-width="20"
      stroke-linecap="round"
      stroke-linejoin="round"
      d="M56 288V56a16 16 0 0 1 16-16h133.6a16 16 0 0 1 11.3 4.7l81.4 81.4a16 16 0 0 1 4.7 11.3V288a16 16 0 0 1-16 16H72a16 16 0 0 1-16-16z"
    />
    <!-- Document fold -->
    <path
      fill="none"
      stroke="white"
      stroke-width="20"
      stroke-linecap="round"
      stroke-linejoin="round"
      d="M200 40v64a16 16 0 0 0 16 16h64"
    />
    <!-- Lines representing text -->
    <line x1="104" y1="160" x2="248" y2="160" stroke="white" stroke-width="16" stroke-linecap="round"/>
    <line x1="104" y1="208" x2="248" y2="208" stroke="white" stroke-width="16" stroke-linecap="round"/>
    <line x1="104" y1="256" x2="184" y2="256" stroke="white" stroke-width="16" stroke-linecap="round"/>
  </g>
</svg>
